<?xml version="1.0"?>
<svg xmlns="http://www.w3.org/2000/svg" xmlns:xlink="http://www.w3.org/1999/xlink" version="1.1" id="Capa_1" x="0px" y="0px" viewBox="0 0 512 512" style="enable-background:new 0 0 512 512;" xml:space="preserve" width="512px" height="512px" class=""><g><path style="fill:#70D6FF" d="M348.568,365.954C348.568,305.228,284.738,256,206,256S63.432,305.228,63.432,365.954  c0,53.265,49.111,97.681,114.314,107.791L206,502l28.254-28.254C299.458,463.635,348.568,419.22,348.568,365.954z" data-original="#72D8FF" class="active-path" data-old_color="#72D8FF"/><path style="fill:#32DBC4" d="M196,256L196,256c0,54.124,43.876,98,98,98h55l40,40v-40h1c61.856,0,112-50.144,112-112l0,0  c0-61.856-50.144-112-112-112h-74l-4.175-0.07C248.171,128.87,196,180.178,196,243.841V256z" data-original="#4DBAF6" class="" data-old_color="#4DBAF6"/><path style="fill:#F2DC5D" d="M10,40v196c0,11.046,8.954,20,20,20h0.32l-0.011,39.947L70.257,256H286c16.569,0,30-13.431,30-30V40  c0-16.569-13.431-30-30-30H40C23.431,10,10,23.431,10,40z" data-original="#C9F3FF" class="" data-old_color="#C9F3FF"/><path style="fill:#FF5D5D;" d="M197.521,59c-13.597,0-25.859,6.249-34.521,16.264C154.338,65.249,142.076,59,128.479,59  c-26.245,0-47.521,23.278-47.521,51.992C80.958,151.214,163,207,163,207s82.042-55.786,82.042-96.008  C245.042,82.278,223.766,59,197.521,59z" data-original="#FF5D5D" class=""/><path d="M390,120h-64V40c0-22.056-17.944-40-40-40H40C17.944,0,0,17.944,0,40v196c0,13.156,8.513,24.361,20.318,28.397  l-0.009,31.547c-0.001,4.045,2.435,7.692,6.172,9.241c1.238,0.513,2.537,0.762,3.826,0.762c2.602,0,5.16-1.016,7.073-2.929  L74.399,266h47.1c-9.758,5.098-18.813,11.101-26.954,17.937c-26.513,22.261-41.114,51.389-41.114,82.018  c0,28.354,12.746,55.841,35.891,77.396c21.546,20.067,51.138,34.11,83.628,39.741l25.979,25.979C200.882,511.023,203.44,512,206,512  s5.118-0.977,7.071-2.929l25.979-25.979c32.49-5.631,62.082-19.674,83.628-39.741c20.109-18.729,32.363-41.935,35.232-66.298  l24.019,24.019c1.913,1.913,4.471,2.929,7.073,2.929c1.288,0,2.588-0.249,3.825-0.761c3.736-1.548,6.173-5.194,6.173-9.239v-30.328  c63.086-4.621,113-57.427,113-121.672C512,174.729,457.271,120,390,120z M70.257,246c-2.652,0-5.195,1.054-7.071,2.929  l-22.869,22.87l0.004-15.796c0.001-2.653-1.053-5.197-2.928-7.073c-1.876-1.876-4.42-2.93-7.072-2.93H30c-5.514,0-10-4.486-10-10V40  c0-11.028,8.972-20,20-20h246c11.028,0,20,8.972,20,20v186c0,11.028-8.972,20-20,20H70.257z M232.722,463.864  c-2.098,0.325-4.038,1.31-5.539,2.811L206,487.857l-21.183-21.183c-1.501-1.501-3.441-2.485-5.539-2.811  c-61.332-9.511-105.847-50.688-105.847-97.91c0-24.617,12.065-48.306,33.975-66.701c20.837-17.496,48.729-28.781,79.159-32.167  C192.133,321.449,238.19,364,294,364h44.762c-0.125,0.632-0.194,1.285-0.194,1.954C338.568,413.176,294.054,454.354,232.722,463.864  z M390,344h-1c-5.522,0-10,4.478-10,10v15.857l-22.929-22.929C354.195,345.054,351.652,344,349,344h-55  c-45.142,0-82.448-34.168-87.428-78H286c22.056,0,40-17.944,40-40h78c5.522,0,10-4.477,10-10s-4.478-10-10-10h-78v-66h64  c56.243,0,102,45.757,102,102S446.243,344,390,344z" data-original="#000000" class="" style="fill:#000000"/><path d="M255.042,110.992C255.042,76.81,229.238,49,197.521,49c-12.49,0-24.633,4.435-34.521,12.409  C153.111,53.435,140.969,49,128.479,49c-31.717,0-57.521,27.81-57.521,61.992c0,19.582,14.881,43.277,44.23,70.428  c20.82,19.261,41.326,33.263,42.188,33.85c1.697,1.154,3.66,1.73,5.623,1.73s3.926-0.577,5.623-1.73  c0.862-0.587,21.368-14.589,42.188-33.85C240.161,154.269,255.042,130.574,255.042,110.992z M162.997,194.8  c-29.988-21.491-72.039-59.901-72.039-83.808C90.958,87.837,107.79,69,128.479,69c10.241,0,19.815,4.548,26.958,12.806  c1.899,2.196,4.66,3.458,7.563,3.458s5.664-1.262,7.563-3.458C177.706,73.548,187.28,69,197.521,69  c20.688,0,37.521,18.837,37.521,41.992C235.042,134.863,192.985,173.291,162.997,194.8z" data-original="#000000" class="" style="fill:#000000"/><path d="M440.286,262H349c-5.522,0-10,4.478-10,10s4.478,10,10,10h91.286c5.522,0,10-4.478,10-10S445.809,262,440.286,262z" data-original="#000000" class="" style="fill:#000000"/><path d="M448.621,206h-0.837c-5.522,0-10,4.477-10,10s4.478,10,10,10h0.837c5.522,0,10-4.477,10-10S454.144,206,448.621,206z" data-original="#000000" class="" style="fill:#000000"/><path d="M156.072,367.295h-0.78c-5.522,0-10,4.478-10,10s4.478,10,10,10h0.78c5.522,0,10-4.478,10-10  S161.595,367.295,156.072,367.295z" data-original="#000000" class="" style="fill:#000000"/><path d="M206.39,367.295h-0.779c-5.522,0-10,4.478-10,10s4.478,10,10,10h0.779c5.522,0,10-4.478,10-10  S211.912,367.295,206.39,367.295z" data-original="#000000" class="" style="fill:#000000"/><path d="M256.708,367.295h-0.78c-5.522,0-10,4.478-10,10s4.478,10,10,10h0.78c5.522,0,10-4.478,10-10  S262.23,367.295,256.708,367.295z" data-original="#000000" class="" style="fill:#000000"/></g> </svg>
