<?xml version="1.0"?>
<svg xmlns="http://www.w3.org/2000/svg" xmlns:xlink="http://www.w3.org/1999/xlink" version="1.1" id="Capa_1" x="0px" y="0px" viewBox="0 0 420.157 420.157" style="enable-background:new 0 0 420.157 420.157;" xml:space="preserve" width="512px" height="512px" class=""><g><g>
	<g>
		<g>
			<path d="M210.079,0C94.08,0,0.031,94.08,0.031,210.109c0,115.999,94.049,210.048,210.048,210.048     c115.999,0,210.048-94.044,210.048-210.043C420.127,94.08,326.047,0,210.079,0z M210.079,388.193     c-98.176,0-178.048-79.872-178.048-178.048S111.903,32.031,210.079,32.031s178.048,79.939,178.048,178.115     S308.255,388.193,210.079,388.193z" data-original="#000000" class="active-path" data-old_color="#F9F8F8" fill="#FFFFFF"/>
			<polygon points="267.423,107.459 210.079,164.833 152.704,107.459 107.423,152.704 164.803,210.084 107.423,267.459      152.704,312.704 210.079,255.329 267.423,312.704 312.673,267.459 255.329,210.084 312.673,152.704    " data-original="#000000" class="active-path" data-old_color="#F9F8F8" fill="#FFFFFF"/>
		</g>
	</g>
</g></g> </svg>
