<?xml version="1.0" encoding="iso-8859-1"?>
<!-- Generator: Adobe Illustrator 19.0.0, SVG Export Plug-In . SVG Version: 6.00 Build 0)  -->
<svg version="1.1" id="Layer_1" xmlns="http://www.w3.org/2000/svg" xmlns:xlink="http://www.w3.org/1999/xlink" x="0px" y="0px"
	 viewBox="0 0 512.001 512.001" style="enable-background:new 0 0 512.001 512.001;" xml:space="preserve">
<path style="fill:#FFD311;" d="M88.532,336.431c0,32.845,74.982,59.423,167.466,59.423s167.466-26.578,167.466-59.423v54.021
	c0,32.845-74.982,59.423-167.466,59.423S88.532,423.297,88.532,390.452V336.431z"/>
<g>
	<path style="fill:#FDB51E;" d="M88.532,390.452c0,32.845,74.982,59.423,167.466,59.423s167.466-26.578,167.466-59.423v54.021
		c0,32.845-74.982,59.423-167.466,59.423S88.532,477.318,88.532,444.473V390.452z"/>
	<path style="fill:#FDB51E;" d="M255.998,341.833c92.484,0,167.466-26.578,167.466-59.423v54.021
		c0,32.845-74.982,59.423-167.466,59.423S88.532,369.276,88.532,336.431v-54.021C88.532,315.254,163.514,341.833,255.998,341.833z"
		/>
</g>
<path style="fill:#FFD311;" d="M423.464,282.409c0,32.845-74.982,59.423-167.466,59.423S88.532,315.254,88.532,282.409
	s74.982-59.423,167.466-59.423S423.464,249.564,423.464,282.409z"/>
<path style="fill:#FABD1B;" d="M255.998,449.875v-54.021c-92.485,0-167.466-26.578-167.466-59.423v54.021
	C88.532,423.297,163.514,449.875,255.998,449.875z"/>
<path style="fill:#F99B21;" d="M255.998,503.897v-54.021c-92.485,0-167.466-26.578-167.466-59.423v54.021
	C88.532,477.318,163.514,503.897,255.998,503.897z"/>
<path style="fill:#F99B21;" d="M255.998,395.854v-54.021c-92.485,0-167.466-26.578-167.466-59.423v54.021
	C88.532,369.276,163.514,395.854,255.998,395.854z"/>
<path style="fill:#FABD1B;" d="M255.998,341.833V222.986c-92.485,0-167.466,26.579-167.466,59.423S163.514,341.833,255.998,341.833z
	"/>
<g>
	<rect x="358.634" y="274.309" style="fill:#FFFFFF;" width="21.609" height="16.206"/>
	<rect x="131.745" y="274.309" style="fill:#FFFFFF;" width="21.609" height="16.206"/>
</g>
<g>
	<path style="fill:#36C63F;" d="M255.998,60.922c5.402-118.847,151.26,0,151.26,0S261.4,179.769,255.998,60.922z"/>
	<path style="fill:#36C63F;" d="M104.739,60.922c0,0,145.858-118.847,151.26,0C250.596,179.769,104.739,60.922,104.739,60.922z"/>
</g>
<g>
	<path style="fill:#00AC4E;" d="M133.196,40.514c-16.818,10.927-28.458,20.408-28.458,20.408s145.858,118.847,151.26,0
		c-0.355-7.817-1.351-14.547-2.839-20.408C238.402,98.606,172.011,65.734,133.196,40.514z"/>
	<path style="fill:#00AC4E;" d="M378.8,40.514c16.818,10.927,28.458,20.408,28.458,20.408s-145.858,118.847-151.26,0
		c0.355-7.817,1.351-14.547,2.839-20.408C273.594,98.606,339.984,65.734,378.8,40.514z"/>
</g>
<g>
	<rect x="174.962" y="52.819" style="fill:#FFFFFF;" width="48.619" height="16.206"/>
	<rect x="288.407" y="52.819" style="fill:#FFFFFF;" width="48.619" height="16.206"/>
</g>
<path d="M377.122,232.744c-30.542-10.835-70.414-17.088-113.02-17.794V108.759c3.667,3.806,7.94,6.814,12.825,9
	c6.088,2.724,12.99,4.084,20.686,4.084c17.867,0,40.008-7.332,66.148-21.941c26.712-14.928,47.735-31.981,48.617-32.699l7.71-6.282
	l-7.71-6.282c-0.882-0.718-21.905-17.77-48.617-32.699C326.364,1.041,297.152-4.967,276.926,4.085
	c-9.085,4.067-16.07,10.961-20.928,20.603c-4.858-9.643-11.843-16.537-20.928-20.603c-20.222-9.051-49.438-3.044-86.832,17.856
	c-26.712,14.928-47.736,31.981-48.618,32.699l-7.71,6.282l7.71,6.282c0.882,0.718,21.905,17.77,48.618,32.699
	c26.14,14.61,48.279,21.941,66.147,21.941c7.694,0,14.599-1.36,20.685-4.084c4.885-2.186,9.158-5.194,12.826-9.001v106.193
	c-42.607,0.706-82.48,6.959-113.02,17.794c-31.848,11.297-50.715,26.859-53.946,44.263h-0.499v167.466
	c0,19.573,19.335,37.211,54.446,49.666c32.47,11.517,75.486,17.861,121.123,17.861s88.654-6.343,121.123-17.861
	c35.11-12.454,54.446-30.093,54.446-49.666V282.41C431.568,262.836,412.231,245.198,377.122,232.744z M283.542,18.879
	c28.16-12.611,83.366,21.73,110.52,42.043c-27.155,20.313-82.363,54.649-110.52,42.043c-11.804-5.287-18.341-19.429-19.431-42.043
	C265.2,38.31,271.738,24.166,283.542,18.879z M228.454,102.965c-28.151,12.612-83.365-21.728-110.52-42.043
	c27.155-20.314,82.37-54.651,110.52-42.043c11.804,5.287,18.34,19.429,19.431,42.043C246.795,83.535,240.259,97.679,228.454,102.965
	z M140.292,248.018c28.871-10.241,66.822-16.165,107.603-16.86v37.746h-29.712v16.206h75.63v-16.206h-29.712v-37.746
	c40.781,0.694,78.732,6.618,107.603,16.86c27.337,9.697,43.657,22.554,43.657,34.391c0,11.838-16.32,24.694-43.657,34.392
	c-30.775,10.917-71.868,16.928-115.706,16.928c-43.839,0-84.931-6.011-115.706-16.928c-27.337-9.698-43.657-22.554-43.657-34.392
	C96.635,270.571,112.955,257.715,140.292,248.018z M371.703,478.865c-30.775,10.917-71.868,16.928-115.706,16.928
	c-43.839,0-84.931-6.012-115.706-16.928c-27.337-9.698-43.657-22.554-43.657-34.392v-24.649c9.138,7.659,21.996,14.532,38.24,20.294
	c32.47,11.517,75.486,17.861,121.123,17.861s88.654-6.343,121.123-17.861c16.242-5.762,29.101-12.634,38.24-20.294v24.649
	C415.361,456.312,399.04,469.169,371.703,478.865z M371.703,424.844c-30.775,10.917-71.868,16.928-115.706,16.928
	c-43.839,0-84.931-6.011-115.706-16.928c-27.337-9.698-43.657-22.554-43.657-34.392v-24.649c9.138,7.659,21.996,14.532,38.24,20.294
	c32.47,11.517,75.486,17.861,121.123,17.861s88.654-6.343,121.123-17.861c16.242-5.762,29.101-12.635,38.24-20.294v24.649
	C415.361,402.29,399.04,415.147,371.703,424.844z M371.703,370.823c-30.775,10.917-71.868,16.928-115.706,16.928
	c-43.839,0-84.931-6.012-115.706-16.928c-27.337-9.698-43.657-22.554-43.657-34.392v-24.649c9.138,7.659,21.996,14.532,38.24,20.294
	c32.47,11.517,75.486,17.861,121.123,17.861s88.654-6.343,121.123-17.861c16.242-5.762,29.101-12.634,38.24-20.294v24.649
	C415.361,348.269,399.04,361.126,371.703,370.823z"/>
<g>
</g>
<g>
</g>
<g>
</g>
<g>
</g>
<g>
</g>
<g>
</g>
<g>
</g>
<g>
</g>
<g>
</g>
<g>
</g>
<g>
</g>
<g>
</g>
<g>
</g>
<g>
</g>
<g>
</g>
</svg>
