<?xml version="1.0" encoding="iso-8859-1"?>
<!-- Generator: Adobe Illustrator 19.0.0, SVG Export Plug-In . SVG Version: 6.00 Build 0)  -->
<svg version="1.1" id="Capa_1" xmlns="http://www.w3.org/2000/svg" xmlns:xlink="http://www.w3.org/1999/xlink" x="0px" y="0px"
	 viewBox="0 0 512 512" style="enable-background:new 0 0 512 512;" xml:space="preserve">
<path style="fill:#A8E5FF;" d="M281,197.25h-30l-20,100h70v-80C301,206.204,292.046,197.25,281,197.25z"/>
<path style="fill:#DBF4FF;" d="M251,197.25h-20c-11.046,0-20,8.954-20,20v80h60v-80C271,206.204,262.046,197.25,251,197.25z"/>
<path style="fill:#85453D;" d="M256,77.25v90c24.853,0,45-20.147,45-45S280.853,77.25,256,77.25z"/>
<path style="fill:#A45E43;" d="M271,122.25c0-24.853-6.716-45-15-45c-24.853,0-45,20.147-45,45s20.147,45,45,45
	C264.284,167.25,271,147.103,271,122.25z"/>
<circle style="fill:#40211D;" cx="256" cy="54.75" r="22.5"/>
<rect x="211" y="297.25" style="fill:#CF301B;" width="90" height="65"/>
<polygon style="fill:#85453D;" points="354.5,287.25 324.5,302.25 354.5,317.25 404.5,317.25 404.5,287.25 "/>
<rect x="107.5" y="287.25" style="fill:#A45E43;" width="247" height="30"/>
<polygon style="fill:#9DB55F;" points="67.5,287.25 97.5,377.25 127.5,362.25 127.5,317.25 "/>
<path style="fill:#B9D171;" d="M37.5,317.25c0,24.853,20.147,45,45,45l15,15v-80L37.5,317.25z"/>
<path style="fill:#DBF4FF;" d="M107.5,197.25h-30l20,120h30v-100C127.5,206.204,118.546,197.25,107.5,197.25z"/>
<path style="fill:#084F6D;" d="M429.5,287.25v75c24.853,0,45-20.147,45-45L429.5,287.25z"/>
<path style="fill:#116F97;" d="M444.5,317.25v-30l-60,30v45l22.5,15l22.5-15C437.784,362.25,444.5,342.103,444.5,317.25z"/>
<polygon style="fill:#85453D;" points="474.5,362.25 454.5,377.25 474.5,392.25 504.5,392.25 504.5,362.25 "/>
<rect x="384.5" y="362.25" style="fill:#A45E43;" width="90" height="30"/>
<polygon style="fill:#85453D;" points="97.5,362.25 77.5,377.25 97.5,392.25 127.5,392.25 127.5,362.25 "/>
<rect x="7.5" y="362.25" style="fill:#A45E43;" width="90" height="30"/>
<path style="fill:#FFCB63;" d="M454.5,197.25h-30l20,120h30v-100C474.5,206.204,465.546,197.25,454.5,197.25z"/>
<path style="fill:#FFE2A8;" d="M424.5,197.25h-20c-11.046,0-20,8.954-20,20v100h60v-100C444.5,206.204,435.546,197.25,424.5,197.25z
	"/>
<path style="fill:#FFB4A9;" d="M82.5,77.25v90c24.853,0,45-20.147,45-45S107.353,77.25,82.5,77.25z"/>
<path style="fill:#FFD9D4;" d="M97.5,122.25c0-24.853-6.716-45-15-45c-24.853,0-45,20.147-45,45s20.147,45,45,45
	C90.784,167.25,97.5,147.103,97.5,122.25z"/>
<path style="fill:#FFFFFF;" d="M97.5,217.25c0-11.046-8.954-20-20-20h-20c-11.046,0-20,8.954-20,20v100h60V217.25z"/>
<path style="fill:#C27749;" d="M471.929,107.25l-42.429-20v80c24.853,0,45-20.147,45-45
	C474.5,116.989,473.588,111.943,471.929,107.25z"/>
<path style="fill:#40211D;" d="M429.5,77.25l14.143,30h28.286C465.751,89.774,449.092,77.25,429.5,77.25z"/>
<path style="fill:#E18F4E;" d="M443.643,107.25l-42.429-19.99c-10.192,8.25-16.714,20.856-16.714,34.99c0,24.853,20.147,45,45,45
	c8.284,0,15-20.147,15-45C444.5,116.989,444.196,111.943,443.643,107.25z"/>
<path style="fill:#60312C;" d="M429.5,107.25h14.143c-2.06-17.476-7.613-30-14.143-30c-10.719,0-20.557,3.754-28.286,10.01
	C405.331,98.911,416.43,107.25,429.5,107.25z"/>
<circle cx="256" cy="227.25" r="7.5"/>
<circle cx="256" cy="257.25" r="7.5"/>
<path d="M256,174.75c28.948,0,52.5-23.551,52.5-52.5c0-20.965-12.356-39.091-30.165-47.499C283.097,69.44,286,62.428,286,54.75
	c0-16.542-13.458-30-30-30s-30,13.458-30,30c0,7.678,2.903,14.69,7.665,20.001c-17.808,8.408-30.165,26.534-30.165,47.499
	C203.5,151.199,227.052,174.75,256,174.75z M241,54.75c0-8.271,6.729-15,15-15s15,6.729,15,15s-6.729,15-15,15S241,63.021,241,54.75
	z M256,84.75c20.678,0,37.5,16.822,37.5,37.5s-16.822,37.5-37.5,37.5s-37.5-16.822-37.5-37.5S235.322,84.75,256,84.75z"/>
<path d="M504.5,197.25c-4.143,0-7.5,3.358-7.5,7.5v150h-30.808c9.745-9.537,15.808-22.821,15.808-37.5v-100
	c0-15.164-12.337-27.5-27.5-27.5h-50c-15.163,0-27.5,12.336-27.5,27.5v62.5h-68.5v-62.5c0-15.164-12.337-27.5-27.5-27.5h-50
	c-15.163,0-27.5,12.336-27.5,27.5v62.5H135v-62.5c0-15.164-12.337-27.5-27.5-27.5h-50c-15.163,0-27.5,12.336-27.5,27.5v100
	c0,14.679,6.063,27.963,15.808,37.5H15v-150c0-4.142-3.357-7.5-7.5-7.5s-7.5,3.358-7.5,7.5v275c0,4.142,3.357,7.5,7.5,7.5
	s7.5-3.358,7.5-7.5v-80h105v80c0,4.142,3.357,7.5,7.5,7.5c4.143,0,7.5-3.358,7.5-7.5v-155h68.5v37.5c0,4.142,3.357,7.5,7.5,7.5h17.5
	v110c0,4.142,3.357,7.5,7.5,7.5s7.5-3.358,7.5-7.5v-110h25v110c0,4.142,3.357,7.5,7.5,7.5s7.5-3.358,7.5-7.5v-110H301
	c4.143,0,7.5-3.358,7.5-7.5v-37.5H377v155c0,4.142,3.357,7.5,7.5,7.5s7.5-3.358,7.5-7.5v-80h105v80c0,4.142,3.357,7.5,7.5,7.5
	s7.5-3.358,7.5-7.5v-275C512,200.608,508.643,197.25,504.5,197.25z M392,217.25c0-6.893,5.607-12.5,12.5-12.5h50
	c6.893,0,12.5,5.607,12.5,12.5v92.5h-75v-15h7.5c28.948,0,52.5-23.551,52.5-52.5v-15c0-4.142-3.357-7.5-7.5-7.5s-7.5,3.358-7.5,7.5
	v15c0,20.678-16.822,37.5-37.5,37.5H392V217.25z M218.5,217.25c0-6.893,5.607-12.5,12.5-12.5h50c6.893,0,12.5,5.607,12.5,12.5v62.5
	h-75V217.25z M57.5,204.75h50c6.893,0,12.5,5.607,12.5,12.5v62.5h-7.5c-20.678,0-37.5-16.822-37.5-37.5v-15
	c0-4.142-3.357-7.5-7.5-7.5s-7.5,3.358-7.5,7.5v15c0,28.949,23.552,52.5,52.5,52.5h7.5v15H45v-92.5
	C45,210.357,50.607,204.75,57.5,204.75z M15,384.75v-15h105v15H15z M120,354.75H82.5c-18.11,0-33.261-12.904-36.745-30H120V354.75z
	 M293.5,354.75h-75v-30h75V354.75z M135,309.75v-15h242v15H135z M466.245,324.75c-3.484,17.096-18.635,30-36.745,30H392v-30H466.245
	z M392,384.75v-15h105v15H392z"/>
<path d="M82.5,174.75c28.948,0,52.5-23.551,52.5-52.5s-23.552-52.5-52.5-52.5S30,93.301,30,122.25S53.552,174.75,82.5,174.75z
	 M82.5,84.75c20.678,0,37.5,16.822,37.5,37.5s-16.822,37.5-37.5,37.5S45,142.928,45,122.25S61.822,84.75,82.5,84.75z"/>
<path d="M206,472.25h-21v-110c0-4.142-3.357-7.5-7.5-7.5h-20c-4.143,0-7.5,3.358-7.5,7.5s3.357,7.5,7.5,7.5H170v110
	c0,4.142,3.357,7.5,7.5,7.5H206c4.143,0,7.5-3.358,7.5-7.5S210.143,472.25,206,472.25z"/>
<path d="M354.5,354.75h-20c-4.143,0-7.5,3.358-7.5,7.5v110h-21c-4.143,0-7.5,3.358-7.5,7.5s3.357,7.5,7.5,7.5h28.5
	c4.143,0,7.5-3.358,7.5-7.5v-110h12.5c4.143,0,7.5-3.358,7.5-7.5S358.643,354.75,354.5,354.75z"/>
<path d="M429.5,174.75c28.948,0,52.5-23.551,52.5-52.5s-23.552-52.5-52.5-52.5S377,93.301,377,122.25S400.552,174.75,429.5,174.75z
	 M459.479,99.75H429.5c-7.615,0-14.583-3.859-18.693-9.988c5.507-3.181,11.888-5.012,18.693-5.012
	C441.742,84.75,452.631,90.648,459.479,99.75z M399.511,99.761c6.96,9.252,18,14.989,29.989,14.989h36.745
	c0.494,2.424,0.755,4.932,0.755,7.5c0,20.678-16.822,37.5-37.5,37.5s-37.5-16.822-37.5-37.5
	C392,113.82,394.798,106.031,399.511,99.761z"/>
<g>
</g>
<g>
</g>
<g>
</g>
<g>
</g>
<g>
</g>
<g>
</g>
<g>
</g>
<g>
</g>
<g>
</g>
<g>
</g>
<g>
</g>
<g>
</g>
<g>
</g>
<g>
</g>
<g>
</g>
</svg>
