<svg xmlns="http://www.w3.org/2000/svg" xmlns:xlink="http://www.w3.org/1999/xlink" version="1.1" id="Capa_1" x="0px" y="0px" viewBox="0 0 512 512" style="enable-background:new 0 0 512 512;" xml:space="preserve" width="512" height="512" class=""><g><polygon style="fill:#FAFAFA" points="339.901,458.247 171.674,458.247 186.287,366.279 325.289,366.279 " data-original="#E3E3E3" class="active-path" data-old_color="#E3E3E3"></polygon><path style="fill:#717171;" d="M362.72,481.077H148.857c-5.668,0-10.307-4.638-10.307-10.307v-9.272  c0-5.668,4.638-10.307,10.307-10.307H362.72c5.668,0,10.307,4.638,10.307,10.307v9.272  C373.026,476.439,368.388,481.077,362.72,481.077z" data-original="#717171" class=""></path><g style="opacity:0.1;">
	<polygon points="325.289,366.279 186.287,366.279 182.325,391.212 329.251,391.212  " data-original="#000000" class=""></polygon>
</g><path style="fill:#FAFAFA" d="M494.151,374.736H17.426c-5.566,0-10.079-4.512-10.079-10.079V36.451  c0-5.566,4.512-10.079,10.079-10.079h476.724c5.567,0,10.079,4.512,10.079,10.079v328.206  C504.229,370.223,499.717,374.736,494.151,374.736z" data-original="#E3E3E3" class="active-path" data-old_color="#E3E3E3"></path><path style="fill:#AEAEAE;" d="M7.347,334.141v30.515c0,5.567,4.512,10.079,10.079,10.079h476.724  c5.567,0,10.079-4.512,10.079-10.079v-30.515H7.347z" data-original="#AEAEAE"></path><rect x="145.023" y="81.153" style="fill:#F2DC5D" width="148.309" height="148.309" data-original="#F23466" class="" data-old_color="#F23466"></rect><rect x="219.182" y="148.096" style="fill:#32DBC4" width="148.309" height="148.309" data-original="#65CDEF" class="" data-old_color="#70D6FF"></rect><g>
	<rect x="421.483" y="92.371" style="fill:#F2DC5D" width="29.4" height="91.646" data-original="#F23466" class="" data-old_color="#F23466"></rect>
	<rect x="55.967" y="76.678" style="fill:#F2DC5D" width="37.795" height="37.795" data-original="#F23466" class="" data-old_color="#F23466"></rect>
</g><rect x="55.967" y="135.649" style="fill:#32DBC4" width="37.795" height="37.795" data-original="#65CDEF" class="" data-old_color="#70D6FF"></rect><rect x="55.967" y="194.609" style="fill:#70D6FF" width="37.795" height="37.795" data-original="#FFC433" class="" data-old_color="#FFC433"></rect><rect x="55.967" y="253.57" style="fill:#F23466" width="37.795" height="37.795" data-original="#97D4AC" class="" data-old_color="#2D00FF"></rect><path style="opacity:0.2;enable-background:new    ;" d="M494.117,26.372h-21.709v297.692c0,5.566-4.512,10.079-10.079,10.079H7.314  v30.515c0,5.566,4.512,10.079,10.079,10.079h476.724c5.566,0,10.079-4.512,10.079-10.079V36.451  C504.196,30.884,499.684,26.372,494.117,26.372z" data-original="#000000" class=""></path><path style="opacity:0.1;enable-background:new    ;" d="M364.616,451.375c0.116,0.616,0.183,1.248,0.183,1.896v9.272  c0,5.668-4.638,10.307-10.307,10.307H140.63c-0.648,0-1.28-0.068-1.896-0.183c0.897,4.77,5.103,8.411,10.123,8.411H362.72  c5.668,0,10.307-4.638,10.307-10.307v-9.272C373.026,456.478,369.386,452.273,364.616,451.375z" data-original="#000000" class=""></path><polygon style="opacity: 0.2;fill:#FAFAFA" points="234.436,331.118 142.596,331.118 272.358,23.348   364.197,23.348 " data-original="#FFFFFF" class="" data-old_color="opacity: 0.2#FAFAFA"></polygon><path d="M504.441,305.994c-4.176,0-7.559,3.383-7.559,7.559v10.02H15.118V44.329c0-1.39,1.13-2.52,2.52-2.52H128  c4.176,0,7.559-3.383,7.559-7.559s-3.383-7.559-7.559-7.559H17.638C7.913,26.692,0,34.604,0,44.329v328.207  c0,9.725,7.913,17.638,17.638,17.638h152.529l-11.391,53.474h-15.884c-9.85,0-17.866,8.015-17.866,17.866v9.272  c0,9.851,8.015,17.866,17.866,17.866h213.862c9.851,0,17.867-8.014,17.867-17.866v-9.272c0-9.85-8.015-17.866-17.867-17.866h-17.515  l-11.391-53.474h166.515c9.725,0,17.638-7.913,17.638-17.638v-58.983C512,309.377,508.617,305.994,504.441,305.994z   M359.501,461.513v9.272c0,1.49-1.259,2.747-2.748,2.747H142.89c-1.49,0-2.747-1.258-2.747-2.747v-9.272  c0-1.49,1.258-2.747,2.747-2.747h22.002H333.12h23.633C358.242,458.765,359.501,460.023,359.501,461.513z M323.782,443.647h-149.55  l11.392-53.474H312.39L323.782,443.647z M494.362,375.055H318.508H179.505H17.638c-1.39,0-2.52-1.13-2.52-2.52v-33.844h481.764  v33.844C496.882,373.925,495.752,375.055,494.362,375.055z" data-original="#000000" class=""></path><path d="M494.362,26.691h-329.47c-4.176,0-7.559,3.383-7.559,7.559s3.383,7.559,7.559,7.559h329.47c1.39,0,2.52,1.13,2.52,2.52  v235.514c0,4.176,3.383,7.559,7.559,7.559s7.559-3.383,7.559-7.559V44.329C512,34.603,504.087,26.691,494.362,26.691z" data-original="#000000" class=""></path><path d="M144.996,234.011h66.595v59.383c0,4.176,3.383,7.559,7.559,7.559h148.307c4.176,0,7.559-3.383,7.559-7.559V145.086  c0-4.176-3.383-7.559-7.559-7.559h-66.594V78.145c0-4.176-3.383-7.559-7.559-7.559H144.996c-4.176,0-7.559,3.383-7.559,7.559  v148.307C137.437,230.628,140.821,234.011,144.996,234.011z M359.899,152.646v133.189h-133.19V234.01h66.594  c4.176,0,7.559-3.383,7.559-7.559v-73.806L359.899,152.646L359.899,152.646z M226.709,218.893v-66.247h59.035v66.247  L226.709,218.893L226.709,218.893z M152.555,85.705h133.19v51.824H219.15c-4.176,0-7.559,3.383-7.559,7.559v73.806h-59.036  L152.555,85.705L152.555,85.705z" data-original="#000000" class=""></path><path d="M421.453,188.571h29.397c4.176,0,7.559-3.383,7.559-7.559V89.363c0-4.176-3.383-7.559-7.559-7.559h-29.397  c-4.176,0-7.559,3.383-7.559,7.559v91.649C413.894,185.188,417.278,188.571,421.453,188.571z M429.012,96.922h14.279v76.531h-14.279  V96.922z" data-original="#000000" class=""></path><path d="M421.453,219.351h29.397c4.176,0,7.559-3.383,7.559-7.559s-3.383-7.559-7.559-7.559h-29.397  c-4.176,0-7.559,3.383-7.559,7.559S417.278,219.351,421.453,219.351z" data-original="#000000" class=""></path><path d="M421.453,250.13h29.397c4.176,0,7.559-3.383,7.559-7.559s-3.383-7.559-7.559-7.559h-29.397  c-4.176,0-7.559,3.383-7.559,7.559S417.278,250.13,421.453,250.13z" data-original="#000000" class=""></path><path d="M421.453,280.91h29.397c4.176,0,7.559-3.383,7.559-7.559s-3.383-7.559-7.559-7.559h-29.397  c-4.176,0-7.559,3.383-7.559,7.559S417.278,280.91,421.453,280.91z" data-original="#000000" class=""></path><path d="M101.291,73.674c0-4.176-3.383-7.559-7.559-7.559H55.937c-4.176,0-7.559,3.383-7.559,7.559v37.795  c0,4.176,3.383,7.559,7.559,7.559h37.795c4.176,0,7.559-3.383,7.559-7.559V73.674z M86.173,103.91H63.496V81.233h22.677V103.91z" data-original="#000000" class=""></path><path d="M101.291,132.634c0-4.176-3.383-7.559-7.559-7.559H55.937c-4.176,0-7.559,3.383-7.559,7.559v37.795  c0,4.176,3.383,7.559,7.559,7.559h37.795c4.176,0,7.559-3.383,7.559-7.559V132.634z M86.173,162.87H63.496v-22.677h22.677V162.87z" data-original="#000000" class=""></path><path d="M101.291,191.595c0-4.176-3.383-7.559-7.559-7.559H55.937c-4.176,0-7.559,3.383-7.559,7.559v37.795  c0,4.176,3.383,7.559,7.559,7.559h37.795c4.176,0,7.559-3.383,7.559-7.559V191.595z M86.173,221.831H63.496v-22.677h22.677V221.831z  " data-original="#000000" class=""></path><path d="M93.732,242.996H55.937c-4.176,0-7.559,3.383-7.559,7.559v37.795c0,4.176,3.383,7.559,7.559,7.559h37.795  c4.176,0,7.559-3.383,7.559-7.559v-37.795C101.291,246.38,97.908,242.996,93.732,242.996z M86.173,280.792H63.496v-22.677h22.677  V280.792z" data-original="#000000" class=""></path></g> </svg>