<?xml version="1.0"?>
<svg xmlns="http://www.w3.org/2000/svg" xmlns:xlink="http://www.w3.org/1999/xlink" version="1.1" id="Capa_1" x="0px" y="0px" viewBox="0 0 512 512" style="enable-background:new 0 0 512 512;" xml:space="preserve" width="512px" height="512px" class=""><g><rect x="89.67" y="81.031" style="fill:#F2DC5D" width="305.7" height="305.7" data-original="#56B4DD" class="" data-old_color="#56B4DD"/><path style="fill:#70D6FF" d="M405.294,316.729c-9.917,45.49-46.508,83.882-122.112,83.882v-37.862  c42.833-17.374,90.637-64.712,122.112-101.843V316.729z" data-original="#9DD3EC" class="" data-old_color="#9DD3EC"/><path style="opacity:0.1;enable-background:new    ;" d="M283.182,362.75v28.291c34.151-12.806,60.648-41.27,70.738-76.655  C331.146,335.051,306.434,353.318,283.182,362.75z" data-original="#000000" class=""/><path style="fill:#70D6FF" d="M79.755,316.729c9.917,45.49,46.508,83.882,122.112,83.882v-37.862  c-42.833-17.374-90.637-64.712-122.112-101.843C79.755,260.906,79.755,316.729,79.755,316.729z" data-original="#9DD3EC" class="" data-old_color="#9DD3EC"/><path style="opacity:0.1;enable-background:new    ;" d="M131.129,314.386c10.09,35.385,36.587,63.849,70.738,76.655V362.75  C178.615,353.318,153.903,335.051,131.129,314.386z" data-original="#000000" class=""/><circle style="fill:#70D6FF" cx="242.52" cy="282.561" r="101.71" data-original="#9DD3EC" class="" data-old_color="#9DD3EC"/><path style="fill:#4A5058;" d="M261.673,282.984c0,10.427-8.638,18.837-19.149,18.463c-10.011-0.356-17.801-8.888-17.801-18.906  v-12.995c0-2.782,2.255-5.037,5.037-5.037h26.875c2.782,0,5.038,2.255,5.038,5.037V282.984z" data-original="#4A5058"/><path id="SVGCleanerId_0" style="fill:#EEEDED;" d="M59.361,69.83v387.468c0,11.215,9.091,20.306,20.306,20.306h325.715  c11.215,0,20.306-9.091,20.306-20.306V69.83c0-11.215-9.091-20.306-20.306-20.306H79.667C68.452,49.524,59.361,58.616,59.361,69.83z   M361.948,372.418H123.101c-11.215,0-20.306-9.091-20.306-20.306V113.264c0-11.215,9.091-20.306,20.306-20.306h238.848  c11.215,0,20.306,9.091,20.306,20.306v238.848C382.254,363.327,373.163,372.418,361.948,372.418z" data-original="#EEEDED" class=""/><g>
	<path id="SVGCleanerId_0_1_" style="fill:#EEEDED;" d="M59.361,69.83v387.468c0,11.215,9.091,20.306,20.306,20.306h325.715   c11.215,0,20.306-9.091,20.306-20.306V69.83c0-11.215-9.091-20.306-20.306-20.306H79.667C68.452,49.524,59.361,58.616,59.361,69.83   z M361.948,372.418H123.101c-11.215,0-20.306-9.091-20.306-20.306V113.264c0-11.215,9.091-20.306,20.306-20.306h238.848   c11.215,0,20.306,9.091,20.306,20.306v238.848C382.254,363.327,373.163,372.418,361.948,372.418z" data-original="#EEEDED" class=""/>
</g><g>
	<ellipse style="fill:#70D6FF" cx="425.69" cy="282.981" rx="31.476" ry="37.13" data-original="#9DD3EC" class="" data-old_color="#9DD3EC"/>
	<ellipse style="fill:#70D6FF" cx="59.36" cy="282.981" rx="31.476" ry="37.13" data-original="#9DD3EC" class="" data-old_color="#9DD3EC"/>
</g><path style="fill:#32DBC4" d="M418.598,165.293l-17.867,35.734c-1.157,2.313-0.242,5.126,2.054,6.317l0,0  c9.915,5.141,21.711,5.141,31.626,0l0,0c2.296-1.191,3.211-4.004,2.054-6.317L418.598,165.293z" data-original="#F5A85B" class="active-path" data-old_color="#F5A85B"/><path style="opacity:0.1;enable-background:new    ;" d="M418.598,165.293l-17.867,35.734c-1.157,2.313-0.242,5.126,2.054,6.317l0,0  c9.915,5.141,21.711,5.141,31.626,0l0,0c2.296-1.191,3.211-4.004,2.054-6.317L418.598,165.293z" data-original="#000000" class=""/><path style="opacity:0.1;enable-background:new    ;" d="M418.598,165.293l-12.122,24.244c3.961,0.559,8.007,0.855,12.122,0.855  c4.115,0,8.161-0.296,12.122-0.855L418.598,165.293z" data-original="#000000" class=""/><circle style="fill:#32DBC4" cx="418.6" cy="97.131" r="85.9" data-original="#F5A85B" class="active-path" data-old_color="#F5A85B"/><path style="fill:#FFFFFF;" d="M476.315,76.031c-2.759,0-5.413-1.527-6.724-4.166c-3.737-7.526-9.215-14.26-15.841-19.475  c-3.255-2.562-3.816-7.277-1.255-10.532c2.563-3.256,7.278-3.816,10.532-1.255c8.362,6.582,15.278,15.085,19.999,24.591  c1.842,3.71,0.328,8.211-3.382,10.053C478.573,75.779,477.435,76.031,476.315,76.031z" data-original="#FFFFFF"/><path style="opacity:0.1;enable-background:new    ;" d="M426.142,175.486c-47.443,0-85.902-38.46-85.902-85.902  c0-21.801,8.126-41.702,21.509-56.849c-17.815,15.74-29.053,38.752-29.053,64.393c0,47.442,38.46,85.902,85.902,85.902  c25.641,0,48.654-11.238,64.394-29.053C467.844,167.36,447.944,175.486,426.142,175.486z" data-original="#000000" class=""/><g>
	<path style="fill:#E883AB" d="M81.098,127.305c-2.235-16.042-7.306-29.648-11.162-38.232c-1.908-4.246-7.949-4.246-9.857,0   c-3.856,8.584-8.928,22.189-11.162,38.232c-16.042,2.235-29.648,7.306-38.232,11.162c-4.247,1.908-4.247,7.949,0,9.857   c8.583,3.857,22.189,8.928,38.232,11.163c2.235,16.042,7.306,29.648,11.162,38.231c1.908,4.246,7.949,4.246,9.857,0   c3.856-8.583,8.928-22.189,11.162-38.231c16.043-2.235,29.648-7.306,38.232-11.163c4.246-1.908,4.246-7.949,0-9.857   C110.746,134.611,97.141,129.539,81.098,127.305z" data-original="#E883AB" class=""/>
	<path style="fill:#E883AB" d="M441.779,404.472c-2.235-16.042-7.306-29.648-11.162-38.232c-1.908-4.246-7.949-4.246-9.857,0   c-3.856,8.584-8.928,22.189-11.162,38.232c-16.042,2.235-29.648,7.306-38.232,11.163c-4.246,1.908-4.247,7.949,0,9.857   c8.584,3.857,22.189,8.928,38.232,11.163c2.235,16.042,7.306,29.648,11.162,38.231c1.908,4.247,7.949,4.247,9.857,0   c3.856-8.583,8.928-22.189,11.162-38.231c16.042-2.235,29.648-7.306,38.232-11.163c4.246-1.908,4.246-7.949,0-9.857   C471.427,411.778,457.821,406.707,441.779,404.472z" data-original="#E883AB" class=""/>
	<path style="fill:#E883AB" d="M144.799,397.617c1.364,0.816,2.624,1.858,3.723,3.125c5.563,6.413,4.875,16.121-1.538,21.685   c-19.247,16.698-31.779,39.813-35.286,65.087c-1.167,8.409-8.929,14.28-17.339,13.113c-8.41-1.166-14.28-8.93-13.114-17.339   c4.53-32.647,20.722-62.509,45.592-84.085C131.984,394.738,139.253,394.301,144.799,397.617z" data-original="#E883AB" class=""/>
</g><g>
	<path style="fill:#32DBC4" d="M125.908,351.826c0.851,1.342,1.508,2.84,1.919,4.465c2.084,8.23-2.898,16.591-11.128,18.675   c-24.701,6.255-46.291,21.263-60.792,42.258c-4.825,6.985-14.399,8.737-21.384,3.913c-6.987-4.825-8.737-14.399-3.913-21.384   c18.731-27.12,46.624-46.507,78.542-54.59C115.757,343.491,122.446,346.37,125.908,351.826z" data-original="#F5A85B" class="active-path" data-old_color="#F5A85B"/>
	<path style="fill:#32DBC4" d="M175.618,119.836c-1.298,0.918-2.761,1.648-4.363,2.141c-8.115,2.494-16.715-2.062-19.21-10.178   c-7.486-24.356-23.557-45.167-45.253-58.596c-7.218-4.468-9.449-13.942-4.98-21.161c4.468-7.22,13.943-9.448,21.161-4.98   c28.026,17.347,48.786,44.234,58.46,75.706C183.434,109.28,180.894,116.106,175.618,119.836z" data-original="#F5A85B" class="active-path" data-old_color="#F5A85B"/>
</g><path d="M498.629,48.947c-2.139-3.546-6.749-4.687-10.296-2.548s-4.688,6.749-2.548,10.296C493.122,68.858,497,82.839,497,97.128  c0,0.555-0.03,1.102-0.042,1.654l-11.233-1.32c-4.096-0.486-7.84,2.459-8.324,6.574c-0.482,4.114,2.46,7.84,6.574,8.324  l11.251,1.322c-3.725,17.257-13.142,32.413-26.188,43.406l-8.226-11.934c-2.35-3.411-7.018-4.27-10.432-1.919  c-3.41,2.351-4.27,7.021-1.918,10.432l8.237,11.95c-11.289,6.305-24.279,9.915-38.102,9.915c-24.846,0-47.013-11.631-61.388-29.718  l12.437-8.053c3.477-2.251,4.471-6.895,2.22-10.372c-2.253-3.478-6.896-4.472-10.372-2.219l-12.456,8.065  c-5.637-10.815-8.843-23.09-8.843-36.106c0-9.458,1.684-18.531,4.767-26.933l7.828,3.747c1.045,0.5,2.147,0.737,3.233,0.737  c2.797,0,5.482-1.572,6.77-4.264c1.789-3.736,0.21-8.215-3.526-10.003l-7.804-3.736c9.879-16.334,25.546-28.788,44.138-34.504  l2.47,12.065c0.727,3.551,3.852,5.997,7.34,5.997c0.498,0,1.005-0.05,1.512-0.154c4.059-0.831,6.675-4.793,5.844-8.852  l-2.469-12.062c2.729-0.288,5.497-0.443,8.301-0.443c15.212,0,29.962,4.359,42.656,12.607c3.474,2.257,8.119,1.271,10.375-2.203  c2.257-3.473,1.271-8.119-2.203-10.375c-15.132-9.832-32.708-15.029-50.828-15.029c-6.354,0-12.561,0.64-18.562,1.855  c-0.057,0.01-0.113,0.014-0.171,0.026c-0.042,0.009-0.082,0.023-0.124,0.032c-23.068,4.748-43.054,18.031-56.51,36.386H153.65  c-7.972-8.091-16.927-15.271-26.731-21.339c-5.194-3.216-11.33-4.216-17.276-2.816c-5.947,1.399-10.994,5.032-14.208,10.226  c-2.615,4.223-3.737,9.069-3.323,13.93H79.667c-15.332,0-27.806,12.474-27.806,27.806v19.332  c-3.344,7.925-7.178,18.883-9.488,31.598c-14.505,2.635-26.725,7.254-34.762,10.865C2.916,133.735,0,138.245,0,143.396  s2.916,9.66,7.61,11.77c8.037,3.611,20.257,8.23,34.763,10.865c2.31,12.716,6.145,23.674,9.488,31.599v41.562  c-17.915,4.016-31.477,22.121-31.477,43.793s13.562,39.777,31.477,43.793v39.021c-10.41,8.49-19.664,18.459-27.422,29.692  c-3.472,5.026-4.778,11.105-3.68,17.114c1.1,6.01,4.474,11.232,9.5,14.703c3.958,2.734,8.483,4.045,12.965,4.045  c2.958,0,5.893-0.58,8.637-1.69v27.635c0,13.256,9.327,24.368,21.761,27.136c-0.233,5.303,1.365,10.476,4.608,14.763  c3.686,4.873,9.048,8.019,15.099,8.858c1.067,0.148,2.133,0.221,3.191,0.221c4.945,0,9.735-1.598,13.748-4.634  c4.873-3.686,8.019-9.047,8.858-15.099c0.16-1.153,0.356-2.297,0.557-3.44h213.015c4.143,0,7.5-3.358,7.5-7.5s-3.357-7.5-7.5-7.5  h-209.14c5.565-16.156,15.278-30.679,28.341-42.013c4.614-4.003,7.395-9.564,7.826-15.658c0.433-6.094-1.534-11.992-5.537-16.605  c-1.597-1.841-3.461-3.404-5.539-4.647c-8.498-5.084-19.24-4.138-26.727,2.357c-22.99,19.946-38.951,46.602-45.767,76.064  c-5.357-1.532-9.293-6.462-9.293-12.305v-42.144c13.228-16.179,31.308-27.758,51.68-32.917c2.057-0.521,3.975-1.313,5.733-2.319  h70.577c0.025,0,0.05,0,0.075,0h95.272c0.007,0,0.015,0.001,0.022,0.001c0.008,0,0.016-0.001,0.024-0.001h71.703  c15.332,0,27.806-12.474,27.806-27.806v-51.846c4.97,13.501,15.582,23.631,28.435,26.512v31.155  c-1.816,1.296-3.299,3.074-4.27,5.234c-3.611,8.037-8.23,20.256-10.865,34.761c-14.505,2.635-26.725,7.254-34.763,10.866  c-4.694,2.109-7.61,6.619-7.61,11.769c0,5.15,2.916,9.66,7.611,11.77c8.037,3.611,20.257,8.23,34.762,10.865  c1.8,9.911,4.527,18.752,7.226,25.924c-1.537,0.641-3.194,0.982-4.897,0.982h-25.207c-4.143,0-7.5,3.358-7.5,7.5s3.357,7.5,7.5,7.5  h25.207c4.155,0,8.184-0.921,11.851-2.656c2.286,1.99,5.247,3.123,8.456,3.122c5.15-0.001,9.66-2.918,11.767-7.611  c3.611-8.037,8.23-20.256,10.865-34.761c14.505-2.635,26.725-7.254,34.763-10.866c4.694-2.109,7.61-6.619,7.61-11.77  c0-5.15-2.916-9.66-7.611-11.77c-8.037-3.611-20.257-8.23-34.762-10.865c-2.635-14.505-7.254-26.724-10.864-34.76  c-0.97-2.161-2.454-3.939-4.27-5.235v-31.155c17.914-4.016,31.476-22.121,31.476-43.793s-13.562-39.777-31.476-43.793v-23.12  c1.589-0.59,3.151-1.279,4.675-2.069c5.899-3.059,8.282-10.384,5.31-16.329l-4.646-9.291c11.876-2.592,22.915-7.446,32.639-14.092  c0.147-0.088,0.301-0.159,0.444-0.258c0.222-0.153,0.432-0.317,0.632-0.488c21.192-14.921,35.923-38.422,39.106-65.411  c0.005-0.036,0.013-0.071,0.018-0.108c0.004-0.038,0.004-0.076,0.008-0.114c0.409-3.54,0.626-7.137,0.626-10.785  C512,80.109,507.376,63.448,498.629,48.947z M88.674,484.319c4.28-30.848,19.579-59.064,43.078-79.451  c1.473-1.278,3.311-1.932,5.161-1.932c1.388,0,2.783,0.368,4.036,1.118c0.001,0,0.001,0.001,0.002,0.001  c0.711,0.425,1.352,0.964,1.905,1.602c1.378,1.588,2.055,3.618,1.906,5.715c-0.149,2.098-1.105,4.012-2.694,5.39  c-20.619,17.888-34.044,42.649-37.8,69.721c-0.289,2.082-1.372,3.928-3.049,5.197c-1.678,1.268-3.747,1.806-5.83,1.519  c-2.083-0.289-3.929-1.372-5.196-3.048C88.925,488.472,88.385,486.401,88.674,484.319z M334.246,57.024  c-0.023,0.054-0.045,0.107-0.067,0.161c-4.164,8.765-7.004,18.274-8.256,28.272H183.012c-4.403-10.116-9.946-19.649-16.489-28.433  C166.523,57.024,334.246,57.024,334.246,57.024z M108.19,35.989c1.106-1.788,2.843-3.038,4.889-3.519  c0.604-0.142,1.213-0.212,1.817-0.212c1.446,0,2.868,0.401,4.129,1.181c23.729,14.688,41.941,36.616,52.047,62.41  c0.005,0.012,0.01,0.025,0.015,0.038c1.166,2.979,2.23,6.007,3.176,9.085c1.003,3.261-0.193,6.774-2.976,8.741  c-0.678,0.479-1.43,0.848-2.236,1.096c-2.012,0.617-4.14,0.416-5.998-0.569c-1.857-0.984-3.221-2.633-3.839-4.644  c-2.159-7.025-5.006-13.763-8.436-20.157c-0.021-0.04-0.043-0.079-0.065-0.118c-9.31-17.303-23.03-32.007-39.974-42.494  c-0.786-0.486-1.46-1.1-2.019-1.802c-0.085-0.113-0.168-0.225-0.259-0.333c-0.581-0.818-1.006-1.749-1.242-2.755  C106.738,39.89,107.083,37.778,108.19,35.989z M66.861,69.831c0-7.062,5.744-12.806,12.806-12.806h19.804  c1.036,0.941,2.158,1.803,3.374,2.556c10.961,6.785,20.361,15.61,27.788,25.877h-7.532c-15.332,0-27.806,12.474-27.806,27.806v9.111  c-2.469-0.591-5.022-1.135-7.653-1.614c-2.635-14.504-7.254-26.724-10.865-34.762c-1.852-4.121-5.554-6.871-9.915-7.481  L66.861,69.831L66.861,69.831z M49.951,152.058c-12.625-1.758-23.677-5.385-31.723-8.663c8.047-3.277,19.099-6.904,31.724-8.663  c3.32-0.462,5.931-3.073,6.394-6.394c1.758-12.625,5.385-23.676,8.661-31.722c3.277,8.046,6.904,19.098,8.662,31.722  c0.463,3.321,3.073,5.931,6.394,6.394c7.484,1.043,14.409,2.743,20.489,4.637c0.009,0.003,0.017,0.006,0.026,0.008  c4.166,1.298,7.939,2.686,11.209,4.017c-3.267,1.331-7.036,2.717-11.198,4.015c-0.016,0.005-0.032,0.01-0.048,0.015  c-6.077,1.892-12.997,3.591-20.477,4.633c-3.321,0.462-5.932,3.073-6.395,6.394c-1.758,12.624-5.385,23.676-8.661,31.722  c-3.277-8.046-6.904-19.098-8.662-31.722C55.883,155.131,53.272,152.521,49.951,152.058z M35.385,282.984  c0-16.338,10.756-29.63,23.977-29.63c13.22,0,23.976,13.292,23.976,29.63s-10.756,29.63-23.976,29.63  C46.141,312.615,35.385,299.323,35.385,282.984z M95.295,300.265v41.24c-9.992,3.484-19.521,8.051-28.434,13.585v-28.313  C79.713,323.896,90.325,313.766,95.295,300.265z M117.735,366.292c-0.058,0.042-0.116,0.084-0.173,0.128  c-0.79,0.578-1.698,1.021-2.703,1.276c-24.367,6.171-45.89,20.305-61.275,40.06c-0.01,0.012-0.019,0.025-0.029,0.037  c-1.313,1.687-2.597,3.401-3.818,5.169c-2.466,3.571-7.379,4.472-10.952,2.004c-1.729-1.195-2.891-2.992-3.27-5.06  c-0.378-2.068,0.072-4.161,1.267-5.891c16.51-23.905,40.556-41.448,68.194-49.896c0.035-0.011,0.071-0.022,0.106-0.034  c1.954-0.595,3.924-1.148,5.912-1.652c0.647-0.164,1.301-0.243,1.945-0.243c2.65,0,5.168,1.339,6.636,3.653l0,0  c0.444,0.701,0.775,1.472,0.982,2.289C121.349,361.26,120.136,364.432,117.735,366.292z M135.268,364.919  c0.735-3.354,0.728-6.922-0.171-10.471c-0.599-2.361-1.56-4.596-2.856-6.64v0.001c-4.756-7.5-13.306-11.463-21.945-10.451v-32.402  c13.317,13.171,26.394,24.759,39.035,34.586c5.777,9.447,12.997,18.014,21.46,25.376L135.268,364.919z M288.277,364.918h-91.505  c-14.75-8.207-26.735-19.983-35.092-33.934c-0.078-0.147-0.162-0.29-0.25-0.432c-8.442-14.263-13.12-30.756-13.12-47.991  c0-51.95,42.265-94.214,94.214-94.214s94.214,42.264,94.214,94.214c0,17.235-4.678,33.728-13.12,47.991  c-0.088,0.142-0.172,0.286-0.25,0.432C315.012,344.935,303.027,356.711,288.277,364.918z M374.754,352.112  c0,7.061-5.744,12.806-12.806,12.806h-47.689c8.462-7.362,15.682-15.929,21.459-25.376c12.279-9.546,24.97-20.752,37.891-33.457  c-0.044,0.873-0.075,1.759-0.075,2.674c0,1.51,0.45,2.914,1.219,4.091v39.262H374.754z M374.754,283.569  c-8.889,9.273-17.679,17.844-26.312,25.657c2.158-8.601,3.297-17.542,3.297-26.664c0-60.221-48.993-109.214-109.214-109.214  s-109.214,48.993-109.214,109.213c0,9.123,1.139,18.064,3.297,26.664c-8.633-7.813-17.424-16.384-26.312-25.657v-65.367  c0-4.142-3.357-7.5-7.5-7.5s-7.5,3.358-7.5,7.5v47.503c-4.97-13.501-15.582-23.631-28.434-26.512v-30.919  c4.361-0.61,8.063-3.36,9.915-7.481c3.611-8.037,8.23-20.256,10.865-34.761c2.631-0.478,5.184-1.023,7.653-1.613v13.425  c0,4.142,3.357,7.5,7.5,7.5s7.5-3.358,7.5-7.5v-17.852c4.669-1.64,8.757-3.32,12.108-4.826c4.695-2.109,7.611-6.619,7.611-11.77  s-2.916-9.66-7.611-11.77c-3.352-1.506-7.44-3.186-12.108-4.826v-13.536c0-7.062,5.744-12.806,12.806-12.806h16.458  c2.09,4.357,3.884,8.876,5.319,13.545c1.795,5.84,5.756,10.631,11.154,13.492c3.348,1.773,6.997,2.672,10.68,2.672  c2.258,0,4.527-0.338,6.746-1.02c2.328-0.715,4.512-1.787,6.49-3.186h0.001c8.087-5.718,11.566-15.924,8.653-25.396  c-0.011-0.036-0.023-0.071-0.034-0.107h136.693c0.605,17.181,5.868,33.197,14.57,46.817c0.11,0.211,0.228,0.419,0.36,0.622  c0.122,0.188,0.26,0.358,0.395,0.532c8.59,13.02,20.348,23.771,34.169,31.151v103.99H374.754z M414.414,190.432  c1.388,0.062,2.781,0.098,4.184,0.098c1.402,0,2.796-0.037,4.184-0.098l5.693,11.386c-1.367,0.54-2.77,0.957-4.191,1.264  c-0.087,0.017-0.173,0.036-0.259,0.055c-5.089,1.048-10.416,0.613-15.305-1.32L414.414,190.432z M389.754,265.703v-79.737  c2.912,0.948,5.886,1.756,8.914,2.417l-4.646,9.291c-2.973,5.945-0.59,13.271,5.311,16.329c3.515,1.823,7.231,3.098,11.027,3.858  c-1.039,11.315-3.106,20.251-5.759,27.618C398.039,250.334,392.821,257.373,389.754,265.703z M434.35,405.506  c0.463,3.321,3.073,5.931,6.394,6.394c12.626,1.759,23.678,5.386,31.724,8.663c-8.047,3.277-19.098,6.904-31.724,8.663  c-3.32,0.462-5.931,3.073-6.394,6.393c-1.758,12.625-5.385,23.675-8.662,31.722c-3.276-8.046-6.903-19.098-8.661-31.722  c-0.463-3.321-3.073-5.931-6.394-6.393c-12.626-1.759-23.678-5.386-31.724-8.663c8.047-3.277,19.098-6.904,31.724-8.663  c3.32-0.462,5.931-3.073,6.394-6.394c1.758-12.625,5.385-23.676,8.661-31.722C428.965,381.831,432.592,392.882,434.35,405.506z   M449.664,282.984c0,16.338-10.756,29.63-23.976,29.63c-13.221,0-23.977-13.292-23.977-29.63c0-0.899,0.038-1.787,0.102-2.666  c5.061-6.635,10.546-14.234,15.024-24.863c2.741-1.351,5.725-2.101,8.851-2.101C438.908,253.354,449.664,266.646,449.664,282.984z   M178.352,256.164c-4.143,0-7.5,3.358-7.5,7.5v10.945c0,4.142,3.357,7.5,7.5,7.5s7.5-3.358,7.5-7.5v-10.945  C185.852,259.522,182.494,256.164,178.352,256.164z M256.636,257.009h-26.875c-6.913,0-12.537,5.625-12.537,12.538v12.995  c0,14.305,10.996,25.902,25.034,26.401c0.319,0.012,0.638,0.017,0.955,0.017c6.766,0,13.134-2.566,18.021-7.283  c5.119-4.94,7.939-11.579,7.939-18.692v-13.438C269.173,262.634,263.549,257.009,256.636,257.009z M254.173,282.984  c0,3.005-1.191,5.811-3.355,7.898c-2.162,2.086-5.022,3.175-8.026,3.069c-5.827-0.208-10.567-5.326-10.567-11.411v-10.532h21.949  v10.976H254.173z M306.697,256.164c-4.143,0-7.5,3.358-7.5,7.5v10.945c0,4.142,3.357,7.5,7.5,7.5s7.5-3.358,7.5-7.5v-10.945  C314.197,259.522,310.84,256.164,306.697,256.164z" data-original="#000000" class=""/></g> </svg>
