<svg xmlns="http://www.w3.org/2000/svg" xmlns:xlink="http://www.w3.org/1999/xlink" version="1.1" id="Layer_1" x="0px" y="0px" viewBox="0 0 512 512" style="enable-background:new 0 0 512 512;" xml:space="preserve" width="512" height="512" class=""><g><rect x="31.319" y="177.021" style="fill:#FBEFB7" width="449.362" height="130.723" data-original="#D0FBFD" class="active-path" data-old_color="#FBF1BF"></rect><polygon style="fill:#70D6FF" points="480.681,8.17 480.681,138.894 349.957,138.894 328.17,73.532 349.957,8.17 " data-original="#27467A" class="" data-old_color="#27467A"></polygon><polygon style="fill:#78E3EC;" points="349.957,8.17 349.957,138.894 317.277,138.894 295.489,73.532 317.277,8.17 " data-original="#78E3EC" class=""></polygon><polygon style="fill:#13AF99" points="129.362,340.426 129.362,405.787 107.574,405.787 85.787,373.106 107.574,340.426 " data-original="#2F5E88" class="" data-old_color="#12A792"></polygon><rect x="64" y="340.426" style="fill:#32DBC4" width="43.574" height="65.362" data-original="#367596" class="" data-old_color="#367596"></rect><polygon style="fill:#13AF99" points="129.362,438.468 129.362,503.83 107.574,503.83 85.787,471.149 107.574,438.468 " data-original="#2F5E88" class="" data-old_color="#12A792"></polygon><rect x="64" y="438.468" style="fill:#32DBC4" width="43.574" height="65.362" data-original="#367596" class="" data-old_color="#367596"></rect><polygon style="fill:#21B2ED" points="129.362,209.702 129.362,275.064 107.574,275.064 85.787,242.383 107.574,209.702 " data-original="#111449" class="" data-old_color="#27B4ED"></polygon><rect x="64" y="209.702" style="fill:#70D6FF" width="43.574" height="65.362" data-original="#27467A" class="" data-old_color="#27467A"></rect><rect x="31.319" y="8.17" style="fill:#F2DC5D" width="285.957" height="130.723" data-original="#A0F6FA" class="" data-old_color="#A0F6FA"></rect><path d="M480.681,0H31.319c-4.512,0-8.17,3.658-8.17,8.17v130.723c0,4.512,3.658,8.17,8.17,8.17h449.362  c4.512,0,8.17-3.658,8.17-8.17V8.17C488.851,3.658,485.193,0,480.681,0z M39.489,16.34h302.298v114.383H39.489V16.34z   M472.511,130.723H358.128V16.34h114.383V130.723z" data-original="#000000" class="" style="fill:#000000"></path><path d="M162.043,403.064h142.979c4.512,0,8.17-3.658,8.17-8.17c0-4.512-3.658-8.17-8.17-8.17H162.043  c-4.512,0-8.17,3.658-8.17,8.17C153.872,399.406,157.53,403.064,162.043,403.064z" data-original="#000000" class="" style="fill:#000000"></path><path d="M448,343.149H162.043c-4.512,0-8.17,3.658-8.17,8.17c0,4.512,3.658,8.17,8.17,8.17H448c4.512,0,8.17-3.658,8.17-8.17  C456.17,346.807,452.512,343.149,448,343.149z" data-original="#000000" class="" style="fill:#000000"></path><path d="M162.043,272.34h142.979c4.512,0,8.17-3.658,8.17-8.17c0-4.512-3.658-8.17-8.17-8.17H162.043c-4.512,0-8.17,3.658-8.17,8.17  C153.872,268.682,157.53,272.34,162.043,272.34z" data-original="#000000" class="" style="fill:#000000"></path><path d="M162.043,228.766H448c4.512,0,8.17-3.658,8.17-8.17s-3.658-8.17-8.17-8.17H162.043c-4.512,0-8.17,3.658-8.17,8.17  S157.53,228.766,162.043,228.766z" data-original="#000000" class="" style="fill:#000000"></path><path d="M480.681,168.851H31.319c-4.512,0-8.17,3.658-8.17,8.17v130.723c0,4.512,3.658,8.17,8.17,8.17h449.362  c4.512,0,8.17-3.658,8.17-8.17V177.021C488.851,172.509,485.193,168.851,480.681,168.851z M472.511,299.574H39.489V185.191h433.021  V299.574z" data-original="#000000" class="" style="fill:#000000"></path><path style="fill:#F2DC5D" d="M384.243,89.654c6.304,6.304,14.685,9.776,23.6,9.776c6.123,0,11.994-1.638,17.114-4.706  l17.266,17.266c1.595,1.595,3.686,2.393,5.777,2.393c2.09,0,4.182-0.797,5.777-2.393c3.191-3.191,3.191-8.364,0-11.554  L436.51,83.171c3.069-5.119,4.707-10.991,4.707-17.114c0-8.915-3.472-17.296-9.776-23.6c-13.011-13.012-34.185-13.012-47.199,0  C371.23,55.468,371.23,76.642,384.243,89.654z M395.798,54.011c3.321-3.32,7.682-4.981,12.045-4.981  c4.362,0,8.725,1.66,12.045,4.981c3.218,3.218,4.989,7.495,4.989,12.045s-1.771,8.827-4.989,12.045  c-3.218,3.218-7.495,4.989-12.045,4.989s-8.827-1.771-12.045-4.989C389.156,71.459,389.156,60.652,395.798,54.011z" data-original="#A0F6FA" class="" data-old_color="#A0F6FA"></path><path d="M129.362,332.255H64c-4.512,0-8.17,3.658-8.17,8.17v65.362c0,4.512,3.658,8.17,8.17,8.17h65.362  c4.512,0,8.17-3.658,8.17-8.17v-65.362C137.532,335.913,133.874,332.255,129.362,332.255z M121.191,397.617H72.17v-49.021h49.021  V397.617z" data-original="#000000" class="" style="fill:#000000"></path><path d="M305.021,484.766H162.043c-4.512,0-8.17,3.658-8.17,8.17s3.658,8.17,8.17,8.17h142.979c4.512,0,8.17-3.658,8.17-8.17  S309.533,484.766,305.021,484.766z" data-original="#000000" class="" style="fill:#000000"></path><path d="M448,441.191H162.043c-4.512,0-8.17,3.658-8.17,8.17c0,4.512,3.658,8.17,8.17,8.17H448c4.512,0,8.17-3.658,8.17-8.17  C456.17,444.85,452.512,441.191,448,441.191z" data-original="#000000" class="" style="fill:#000000"></path><path d="M129.362,430.298H64c-4.512,0-8.17,3.658-8.17,8.17v65.362c0,4.512,3.658,8.17,8.17,8.17h65.362  c4.512,0,8.17-3.658,8.17-8.17v-65.362C137.532,433.956,133.874,430.298,129.362,430.298z M121.191,495.66H72.17v-49.021h49.021  V495.66z" data-original="#000000" class="" style="fill:#000000"></path><path d="M64,283.234h65.362c4.512,0,8.17-3.658,8.17-8.17v-65.362c0-4.512-3.658-8.17-8.17-8.17H64c-4.512,0-8.17,3.658-8.17,8.17  v65.362C55.83,279.576,59.488,283.234,64,283.234z M72.17,217.872h49.021v49.021H72.17V217.872z" data-original="#000000" class="" style="fill:#000000"></path></g> </svg>