<?xml version="1.0" encoding="iso-8859-1"?>
<!-- Generator: Adobe Illustrator 19.0.0, SVG Export Plug-In . SVG Version: 6.00 Build 0)  -->
<svg version="1.1" id="Capa_1" xmlns="http://www.w3.org/2000/svg" xmlns:xlink="http://www.w3.org/1999/xlink" x="0px" y="0px"
	 viewBox="0 0 512.002 512.002" style="enable-background:new 0 0 512.002 512.002;" xml:space="preserve">
<polygon style="fill:#A8E5FF;" points="54.002,7.501 34.002,60.001 54.002,112.501 84.002,142.501 84.002,7.501 "/>
<rect x="7.502" y="7.501" style="fill:#DBF4FF;" width="46.5" height="105"/>
<path style="fill:#084F6D;" d="M159.502,262.501v75c24.853,0,45-20.147,45-45L159.502,262.501z"/>
<path style="fill:#116F97;" d="M174.502,292.501l-15-30l-45,30c0,24.853,20.147,45,45,45
	C167.786,337.501,174.502,317.354,174.502,292.501z"/>
<path style="fill:#FFCB63;" d="M184.502,172.501h-30l20,120h30v-100C204.502,181.455,195.548,172.501,184.502,172.501z"/>
<path style="fill:#FFE2A8;" d="M154.502,172.501h-20c-11.046,0-20,8.954-20,20v100h60v-100
	C174.502,181.455,165.548,172.501,154.502,172.501z"/>
<path style="fill:#C27749;" d="M201.931,82.501l-42.429-20v80c24.853,0,45-20.147,45-45C204.502,92.24,203.59,87.194,201.931,82.501
	z"/>
<path style="fill:#40211D;" d="M159.502,52.501l14.143,30h28.286C195.753,65.025,179.094,52.501,159.502,52.501z"/>
<path style="fill:#E18F4E;" d="M173.645,82.501l-42.429-19.99c-10.192,8.25-16.714,20.856-16.714,34.99c0,24.853,20.147,45,45,45
	c8.284,0,15-20.147,15-45C174.502,92.24,174.198,87.194,173.645,82.501z"/>
<path style="fill:#60312C;" d="M159.502,82.501h14.143c-2.06-17.476-7.613-30-14.143-30c-10.719,0-20.557,3.754-28.286,10.01
	C135.333,74.162,146.432,82.501,159.502,82.501z"/>
<path style="fill:#2DADE3;" d="M429.502,262.501v75c24.853,0,45-20.147,45-45L429.502,262.501z"/>
<path style="fill:#49C9FF;" d="M444.502,292.501l-15-30l-45,30c0,24.853,20.147,45,45,45
	C437.786,337.501,444.502,317.354,444.502,292.501z"/>
<path style="fill:#9DB55F;" d="M454.502,172.501h-30l20,120h30v-100C474.502,181.455,465.548,172.501,454.502,172.501z"/>
<path style="fill:#B9D171;" d="M424.502,172.501h-20c-11.046,0-20,8.954-20,20v100h60v-100
	C444.502,181.455,435.548,172.501,424.502,172.501z"/>
<path style="fill:#60312C;" d="M429.502,52.501v90c24.853,0,45-20.147,45-45S454.355,52.501,429.502,52.501z"/>
<path style="fill:#85453D;" d="M444.502,97.501c0-24.853-6.716-45-15-45c-24.853,0-45,20.147-45,45s20.147,45,45,45
	C437.786,142.501,444.502,122.354,444.502,97.501z"/>
<path style="fill:#9DB55F;" d="M279.502,262.501v75c24.853,0,45-20.147,45-45L279.502,262.501z"/>
<path style="fill:#B9D171;" d="M294.502,292.501l-15-30l-45,30c0,24.853,20.147,45,45,45
	C287.786,337.501,294.502,317.354,294.502,292.501z"/>
<path style="fill:#DBF4FF;" d="M304.502,172.501h-30l20,120h30v-100C324.502,181.455,315.548,172.501,304.502,172.501z"/>
<path style="fill:#FFFFFF;" d="M274.502,172.501h-20c-11.046,0-20,8.954-20,20v100h60v-100
	C294.502,181.455,285.548,172.501,274.502,172.501z"/>
<path style="fill:#FFB4A9;" d="M279.502,52.501v90c24.853,0,45-20.147,45-45S304.355,52.501,279.502,52.501z"/>
<path style="fill:#FFD9D4;" d="M294.502,97.501c0-24.853-6.716-45-15-45c-24.853,0-45,20.147-45,45s20.147,45,45,45
	C287.786,142.501,294.502,122.354,294.502,97.501z"/>
<path d="M7.502,120h43.394l27.803,27.804c1.435,1.435,3.353,2.196,5.305,2.196c0.966,0,1.941-0.187,2.869-0.571
	c2.803-1.16,4.63-3.896,4.63-6.929V7.5c0-4.143-3.358-7.5-7.5-7.5h-76.5c-4.142,0-7.5,3.357-7.5,7.5v105
	C0.002,116.643,3.36,120,7.502,120z M15.002,15h61.5v109.394l-17.197-17.197C57.899,105.79,55.991,105,54.002,105h-39
	C15.002,105,15.002,15,15.002,15z"/>
<path d="M159.502,150c28.949,0,52.5-23.552,52.5-52.5S188.451,45,159.502,45s-52.5,23.552-52.5,52.5S130.553,150,159.502,150z
	 M189.482,75h-29.98c-7.614,0-14.583-3.859-18.693-9.988C146.316,61.831,152.697,60,159.502,60
	C171.744,60,182.633,65.898,189.482,75z M129.514,75.011c6.96,9.252,18,14.989,29.988,14.989h36.745
	c0.494,2.424,0.755,4.932,0.755,7.5c0,20.678-16.822,37.5-37.5,37.5s-37.5-16.822-37.5-37.5
	C122.002,89.07,124.8,81.281,129.514,75.011z"/>
<path d="M374.502,105h3.044c3.652,25.407,25.554,45,51.956,45s48.304-19.593,51.956-45h3.044c4.143,0,7.5-3.357,7.5-7.5
	s-3.357-7.5-7.5-7.5h-3.044c-0.6-4.171-1.695-8.182-3.218-11.979l2.644-1.526c3.587-2.07,4.816-6.657,2.745-10.245
	c-2.07-3.588-6.656-4.814-10.245-2.745l-2.664,1.538c-2.567-3.253-5.508-6.194-8.761-8.761l1.538-2.664
	c2.071-3.588,0.842-8.175-2.745-10.245c-3.589-2.074-8.175-0.843-10.245,2.745l-1.526,2.644c-3.797-1.523-7.807-2.618-11.979-3.218
	V42.5c0-4.143-3.357-7.5-7.5-7.5s-7.5,3.357-7.5,7.5v3.044c-4.171,0.6-8.182,1.695-11.979,3.218l-1.526-2.644
	c-2.07-3.588-6.656-4.815-10.245-2.745c-3.587,2.07-4.816,6.657-2.745,10.245l1.538,2.664c-3.253,2.567-6.194,5.508-8.761,8.761
	l-2.664-1.538c-3.59-2.073-8.175-0.843-10.245,2.745c-2.071,3.588-0.842,8.175,2.745,10.245l2.644,1.526
	c-1.523,3.797-2.618,7.807-3.218,11.979h-3.044c-4.143,0-7.5,3.357-7.5,7.5S370.359,105,374.502,105z M429.502,135
	c-20.678,0-37.5-16.822-37.5-37.5s16.822-37.5,37.5-37.5s37.5,16.822,37.5,37.5S450.18,135,429.502,135z"/>
<path d="M481.124,185.597C478.053,173.764,467.282,165,454.502,165h-50c-12.563,0-23.178,8.472-26.452,20h-47.096
	c-3.274-11.528-13.889-20-26.452-20h-50c-12.563,0-23.178,8.472-26.452,20h-17.096c-3.274-11.528-13.889-20-26.452-20h-50
	c-12.563,0-23.178,8.472-26.452,20H57.502c-23.435,0-42.5-19.065-42.5-42.5c0-4.143-3.358-7.5-7.5-7.5s-7.5,3.357-7.5,7.5
	c0,31.706,25.794,57.5,57.5,57.5h49.5v92.5c0,14.269,5.73,27.22,15,36.692v159.903l-24.872,8.29c-3.93,1.31-6.053,5.558-4.744,9.487
	c1.048,3.143,3.974,5.13,7.114,5.13c0.786,0,1.586-0.125,2.373-0.387l30-10c3.063-1.021,5.128-3.887,5.128-7.115V339.924
	c6.824,3.251,14.452,5.076,22.5,5.076s15.676-1.825,22.5-5.076V494.5c0,3.229,2.066,6.095,5.128,7.115l30,10
	c0.787,0.262,1.586,0.387,2.373,0.387c3.14,0,6.066-1.987,7.114-5.13c1.31-3.93-0.814-8.178-4.744-9.487L197,489.095V329.192
	c9.27-9.472,15-22.423,15-36.692V200h15v92.5c0,14.269,5.73,27.22,15,36.692V494.5c0,3.229,2.066,6.095,5.128,7.115l30,10
	c0.787,0.262,1.587,0.387,2.373,0.387c3.141,0,6.066-1.987,7.114-5.13c1.31-3.93-0.813-8.178-4.743-9.487L257,489.095V339.924
	c6.824,3.251,14.452,5.076,22.5,5.076s15.676-1.825,22.5-5.076V494.5c0,3.229,2.065,6.095,5.128,7.115l30,10
	c0.787,0.262,1.587,0.387,2.373,0.387c3.141,0,6.066-1.987,7.114-5.13c1.31-3.93-0.813-8.178-4.743-9.487L317,489.095V329.192
	c9.27-9.472,15-22.423,15-36.692v-54.948h45V292.5c0,14.269,5.73,27.219,15,36.692v159.903l-24.872,8.29
	c-3.93,1.31-6.053,5.558-4.743,9.487c1.048,3.143,3.974,5.13,7.114,5.13c0.786,0,1.586-0.125,2.373-0.387l30-10
	c3.063-1.021,5.128-3.887,5.128-7.115V339.924c6.824,3.251,14.452,5.076,22.5,5.076s15.676-1.825,22.5-5.076v149.171l-24.872,8.29
	c-3.93,1.31-6.053,5.558-4.743,9.487c1.048,3.143,3.974,5.13,7.114,5.13c0.786,0,1.586-0.125,2.373-0.387l30-10
	c3.063-1.021,5.128-3.887,5.128-7.115V329.192c7.766-7.936,13.034-18.315,14.542-29.864C498.864,296.022,512,280.771,512,262.5v-40
	C512.002,204.083,498.653,188.735,481.124,185.597z M254.502,180h50c6.893,0,12.5,5.607,12.5,12.5v28.912
	c-17.801-2.879-34.214-11.215-47.214-24.215c-2.93-2.928-7.678-2.928-10.607,0c-2.929,2.93-2.929,7.678,0,10.607
	c15.843,15.843,36,25.8,57.821,28.79V285h-75v-92.5C242.002,185.607,247.609,180,254.502,180z M134.502,180h50
	c6.893,0,12.5,5.607,12.5,12.5V285h-75v-92.5C122.002,185.607,127.609,180,134.502,180z M122.757,300h73.491
	c-3.484,17.096-18.635,30-36.745,30S126.241,317.096,122.757,300z M242.757,300h73.491c-3.484,17.096-18.635,30-36.745,30
	S246.241,317.096,242.757,300z M332.002,222.552V200h45v22.552H332.002z M399.484,222.552h-7.482V192.5
	c0-6.893,5.607-12.5,12.5-12.5h50c6.893,0,12.5,5.607,12.5,12.5V285h-75v-47.448h7.482c4.143,0,7.5-3.357,7.5-7.5
	S403.627,222.552,399.484,222.552z M392.757,300h73.491c-3.484,17.096-18.635,30-36.745,30S396.241,317.096,392.757,300z
	 M497.002,262.5c0,9.777-6.271,18.114-15,21.21v-82.42c8.729,3.096,15,11.433,15,21.21V262.5z"/>
<path d="M279.502,150c28.948,0,52.5-23.552,52.5-52.5S308.45,45,279.502,45c-28.949,0-52.5,23.552-52.5,52.5
	S250.553,150,279.502,150z M279.502,60c20.678,0,37.5,16.822,37.5,37.5s-16.822,37.5-37.5,37.5s-37.5-16.822-37.5-37.5
	S258.824,60,279.502,60z"/>
<g>
</g>
<g>
</g>
<g>
</g>
<g>
</g>
<g>
</g>
<g>
</g>
<g>
</g>
<g>
</g>
<g>
</g>
<g>
</g>
<g>
</g>
<g>
</g>
<g>
</g>
<g>
</g>
<g>
</g>
</svg>
